<svg width="28" height="28" viewBox="0 0 28 28" fill="none" xmlns="http://www.w3.org/2000/svg">
<g id="Instagram">
<path id="Instagram_2" fill-rule="evenodd" clip-rule="evenodd" d="M14.0007 2.33325C17.1691 2.33325 17.5664 2.34668 18.8108 2.40346C20.0526 2.4601 20.9007 2.65734 21.6428 2.94576C22.41 3.24386 23.0606 3.64279 23.7092 4.29137C24.3578 4.94 24.7567 5.59062 25.0549 6.35781C25.3432 7.0999 25.5405 7.94799 25.5971 9.18977C25.6539 10.4341 25.6673 10.8314 25.6673 13.9999C25.6673 17.1684 25.6539 17.5657 25.5971 18.8101C25.5405 20.0519 25.3432 20.8999 25.0549 21.642C24.7567 22.4092 24.3578 23.0598 23.7092 23.7085C23.0606 24.3571 22.41 24.756 21.6428 25.0541C20.9007 25.3425 20.0526 25.5397 18.8108 25.5964C17.5664 25.6532 17.1691 25.6666 14.0007 25.6666C10.8322 25.6666 10.4349 25.6532 9.1905 25.5964C7.94872 25.5397 7.10063 25.3425 6.35854 25.0541C5.59135 24.756 4.94073 24.3571 4.2921 23.7085C3.64352 23.0598 3.2446 22.4092 2.94649 21.642C2.65807 20.8999 2.46083 20.0519 2.40419 18.8101C2.34741 17.5657 2.33398 17.1684 2.33398 13.9999C2.33398 10.8314 2.34741 10.4341 2.40419 9.18977C2.46083 7.94799 2.65807 7.0999 2.94649 6.35781C3.2446 5.59062 3.64352 4.94 4.2921 4.29137C4.94073 3.64279 5.59135 3.24386 6.35854 2.94576C7.10063 2.65734 7.94872 2.4601 9.1905 2.40346C10.4349 2.34668 10.8322 2.33325 14.0007 2.33325ZM14.0001 4.43536C10.885 4.43536 10.516 4.44727 9.28578 4.50339C8.14829 4.55526 7.53055 4.74532 7.11945 4.9051C6.57488 5.11674 6.18624 5.36955 5.77801 5.77782C5.36973 6.18605 5.11692 6.5747 4.90528 7.11927C4.74551 7.53037 4.55545 8.14811 4.50358 9.2856C4.44745 10.5158 4.43555 10.8848 4.43555 14C4.43555 17.1151 4.44745 17.4841 4.50358 18.7143C4.55545 19.8518 4.74551 20.4695 4.90528 20.8806C5.11692 21.4252 5.36978 21.8138 5.77801 22.222C6.18624 22.6303 6.57488 22.8831 7.11945 23.0948C7.53055 23.2545 8.14829 23.4446 9.28578 23.4965C10.5158 23.5526 10.8848 23.5645 14.0001 23.5645C17.1155 23.5645 17.4844 23.5526 18.7144 23.4965C19.8519 23.4446 20.4697 23.2545 20.8808 23.0948C21.4254 22.8831 21.814 22.6303 22.2222 22.222C22.6305 21.8138 22.8833 21.4252 23.095 20.8806C23.2547 20.4695 23.4448 19.8518 23.4967 18.7143C23.5528 17.4841 23.5647 17.1151 23.5647 14C23.5647 10.8848 23.5528 10.5158 23.4967 9.2856C23.4448 8.14811 23.2547 7.53037 23.095 7.11927C22.8833 6.5747 22.6305 6.18605 22.2222 5.77782C21.814 5.36955 21.4254 5.11674 20.8808 4.9051C20.4697 4.74532 19.8519 4.55526 18.7144 4.50339C17.4842 4.44727 17.1152 4.43536 14.0001 4.43536ZM14.0007 8.00893C17.3094 8.00893 19.9916 10.6912 19.9916 13.9999C19.9916 17.3087 17.3094 19.9909 14.0007 19.9909C10.6919 19.9909 8.00966 17.3087 8.00966 13.9999C8.00966 10.6912 10.6919 8.00893 14.0007 8.00893ZM14.0002 17.8888C16.148 17.8888 17.8891 16.1477 17.8891 13.9999C17.8891 11.8521 16.148 10.111 14.0002 10.111C11.8524 10.111 10.1113 11.8521 10.1113 13.9999C10.1113 16.1477 11.8524 17.8888 14.0002 17.8888ZM21.6284 7.77224C21.6284 8.54544 21.0015 9.17221 20.2283 9.17221C19.4552 9.17221 18.8284 8.54544 18.8284 7.77224C18.8284 6.99903 19.4552 6.37221 20.2283 6.37221C21.0015 6.37221 21.6284 6.99903 21.6284 7.77224Z" fill="white"/>
</g>
</svg>
