<svg width="28" height="28" viewBox="0 0 28 28" fill="none" xmlns="http://www.w3.org/2000/svg">
<g id="LinkedIn">
<path id="LinkedIn_2" fill-rule="evenodd" clip-rule="evenodd" d="M8.86524 23.3334H5.13281V10.9672H9.09882V23.3334H8.86534H8.86524ZM6.99936 9.33344C5.83269 9.33344 4.66602 8.40034 4.66602 7.00009C4.66602 5.59984 5.59911 4.66675 6.99936 4.66675C8.16603 4.66675 9.33271 5.59984 9.33271 7.00009C9.33271 8.40034 8.16599 9.33344 6.99936 9.33344ZM23.3319 23.3334H19.5995V16.8005C19.5995 14.9331 18.8977 14.0001 17.4985 14.0001C15.8648 14.0001 15.1652 14.9332 15.1652 16.8005V23.3334H11.4316V10.9672H15.1652V12.5998C15.1652 12.5998 16.3319 10.5 18.8977 10.5C21.4657 10.5001 23.3319 12.1338 23.3319 15.3992V23.3335V23.3334Z" fill="white"/>
</g>
</svg>
