<svg width="55" height="26" viewBox="0 0 55 26" fill="none" xmlns="http://www.w3.org/2000/svg">
<g id="Logo">
<g id="Vectors">
<path id="Vector" d="M9.20446 0.641113V1.61676H6.36849V25.3584H5.39212V1.61676H0V0.641113H9.20446Z" fill="white"/>
<path id="Vector_2" d="M16.9792 0.641113H16.0024V25.3584H16.9792V0.641113Z" fill="white"/>
<path id="Vector_3" d="M27.671 7.05151V25.3584H26.6947V16.9025H17.9556V15.928H26.6947V7.05151H27.671Z" fill="white"/>
<path id="Vector_4" d="M11.9475 0.641113H10.1685V1.61638H11.9475V0.641113Z" fill="white"/>
<path id="Vector_5" d="M54.9087 13.0003C54.9087 19.8257 49.3668 25.3588 42.5307 25.3588C40.3969 25.3588 38.3891 24.8197 36.6363 23.8706L37.1005 22.9523C38.713 23.8319 40.5631 24.3315 42.5307 24.3315C48.7988 24.3315 53.8799 19.2582 53.8799 13.0003C53.8799 6.74252 48.7988 1.66839 42.5307 1.66839C38.2583 1.66839 34.5364 4.02627 32.6011 7.51013L31.7339 6.95322C33.8543 3.18615 37.8948 0.641113 42.5307 0.641113C49.3664 0.641113 54.9087 6.17459 54.9087 13.0003Z" fill="white"/>
</g>
</g>
</svg>
